<svg viewBox="0 0 360 360" fill="none" xmlns="http://www.w3.org/2000/svg">
  <rect width="360" height="360" fill="black" />
  <path fill-rule="evenodd" clip-rule="evenodd"
    d="M139.839 80.8781C139.154 79.1363 139.937 77.1967 141.562 76.2684L151.607 70.5298C154.137 69.0846 157.379 70.7696 158.435 73.485C161.719 81.9275 170.025 88.0628 180.002 88.0628C189.979 88.0628 198.284 81.9281 201.568 73.4863C202.624 70.7711 205.866 69.0864 208.395 70.5315L218.441 76.2701C220.066 77.1984 220.849 79.1382 220.164 80.88C213.914 96.7876 198.289 108.063 180.002 108.063C161.714 108.063 146.088 96.7868 139.839 80.8781ZM97.5369 108.39C95.6552 106.116 95.8151 102.402 98.3777 100.938L108.489 95.1618C110.092 94.2465 112.129 94.5343 113.294 95.9655C124.13 109.278 126.204 128.335 117.048 144.026C107.896 159.711 90.1903 167.462 73.1272 164.843C71.2852 164.56 70 162.923 70 161.059V149.526C70 146.599 73.0962 144.621 75.9835 145.105C85.2212 146.654 94.7962 142.479 99.682 134.105C104.547 125.768 103.444 115.528 97.5369 108.39ZM75.9835 214.874C73.0962 215.358 70 213.38 70 210.452V198.92C70 197.056 71.2852 195.419 73.1272 195.136C90.1903 192.517 107.896 200.268 117.048 215.953C126.203 231.644 124.13 250.7 113.295 264.012C112.13 265.444 110.092 265.732 108.49 264.816L98.3783 259.04C95.8158 257.576 95.6558 253.862 97.5374 251.588C103.444 244.451 104.547 234.211 99.6819 225.874C94.7961 217.5 85.2212 213.325 75.9835 214.874ZM158.435 286.493C157.379 289.208 154.137 290.893 151.608 289.448L141.562 283.709C139.937 282.781 139.154 280.841 139.839 279.1C146.089 263.192 161.715 251.916 180.002 251.916C198.288 251.916 213.913 263.191 220.164 279.098C220.848 280.84 220.065 282.78 218.44 283.708L208.395 289.446C205.865 290.892 202.624 289.207 201.567 286.492C198.283 278.05 189.978 271.916 180.002 271.916C170.025 271.916 161.719 278.051 158.435 286.493ZM261.562 252.606C263.201 254.873 262.916 258.301 260.487 259.688L250.342 265.484C248.679 266.433 246.56 266.084 245.427 264.541C235.723 251.337 234.173 233.189 242.955 218.138C252.107 202.455 269.81 194.703 286.872 197.321C288.715 197.604 290 199.241 290 201.104V212.637C290 215.565 286.904 217.542 284.017 217.059C274.78 215.511 265.207 219.687 260.321 228.059C255.716 235.952 256.458 245.549 261.562 252.606ZM284.017 145.106C286.904 144.622 290 146.6 290 149.527V161.06C290 162.924 288.715 164.56 286.872 164.843C269.811 167.461 252.107 159.71 242.955 144.026C233.8 128.335 235.873 109.279 246.708 95.9669C247.873 94.5357 249.911 94.2477 251.513 95.1631L261.625 100.94C264.187 102.403 264.347 106.117 262.466 108.391C256.559 115.529 255.457 125.768 260.321 134.105C265.207 142.478 274.78 146.653 284.017 145.106ZM232.491 178.949C232.491 164.774 221.035 153.345 206.981 153.345C192.927 153.345 181.472 164.774 181.472 178.949C181.472 193.124 192.927 204.553 206.981 204.553C221.035 204.553 232.491 193.124 232.491 178.949ZM248.491 178.949C248.491 155.971 229.906 137.345 206.981 137.345C184.056 137.345 165.472 155.971 165.472 178.949C165.472 201.926 184.056 220.553 206.981 220.553C229.906 220.553 248.491 201.926 248.491 178.949ZM161.84 222.152C165.216 222.152 168 224.902 168 228.353C168 231.804 165.216 234.555 161.84 234.555C158.463 234.555 155.679 231.804 155.679 228.353C155.679 224.902 158.463 222.152 161.84 222.152ZM161.84 210.152C171.869 210.152 180 218.301 180 228.353C180 238.406 171.869 246.555 161.84 246.555C151.81 246.555 143.679 238.406 143.679 228.353C143.679 218.301 151.81 210.152 161.84 210.152Z"
    fill="url(#paint1_linear_758_474)" />
  <defs>
    <linearGradient id="paint0_linear_758_474" x1="180" y1="-25.6126" x2="180.711" y2="385.613"
      gradientUnits="userSpaceOnUse">
      <stop stop-color="#515151" />
      <stop offset="0.598958" stop-color="#242424" />
    </linearGradient>
    <linearGradient id="paint1_linear_758_474" x1="161.526" y1="252.104" x2="161.526" y2="108.392"
      gradientUnits="userSpaceOnUse">
      <stop stop-color="#FFC061" />
      <stop offset="1" stop-color="#F05D5D" />
    </linearGradient>
  </defs>
</svg>